{"accessors" : [{"bufferView" : 0, "byteOffset" : 0, "componentType" : 5123, "count" : 1524, "type" : "SCALAR", "max" : [967], "min" : [0]}, {"bufferView" : 1, "byteOffset" : 0, "componentType" : 5126, "count" : 968, "type" : "VEC3", "max" : [0.9914950728416443, 0.9999969601631165, 0.9982174038887024], "min" : [-0.9914950728416443, -1.0071450471878052, -5.360121250152588], "name" : "POSITION"}, {"bufferView" : 1, "byteOffset" : 12, "componentType" : 5126, "count" : 968, "type" : "VEC3", "max" : [0.9995519518852234, 1.0000044107437134, 1.0000044107437134], "min" : [-0.9995519518852234, -1.0000044107437134, -1.0000044107437134], "name" : "NORMAL"}, {"bufferView" : 1, "byteOffset" : 24, "componentType" : 5126, "count" : 968, "type" : "VEC2", "max" : [0.875, 2], "min" : [0.125, 1], "name" : "TEXCOORD_0"}, {"bufferView" : 0, "byteOffset" : 3048, "componentType" : 5123, "count" : 4380, "type" : "SCALAR", "max" : [816], "min" : [0]}, {"bufferView" : 2, "byteOffset" : 0, "componentType" : 5126, "count" : 817, "type" : "VEC3", "max" : [0.9684979319572449, 7.139515399932861, 0.4961591958999634], "min" : [-8.026825904846191, -0.34896355867385864, -7.111844062805176], "name" : "POSITION"}, {"bufferView" : 2, "byteOffset" : 12, "componentType" : 5126, "count" : 817, "type" : "VEC3", "max" : [1.0000044107437134, 1.0000044107437134, 1.0000004768371582], "min" : [-1.0000042915344238, -1.0000044107437134, -1.0000004768371582], "name" : "NORMAL"}, {"bufferView" : 2, "byteOffset" : 24, "componentType" : 5126, "count" : 817, "type" : "VEC2", "max" : [1, 2], "min" : [0, 1], "name" : "TEXCOORD_0"}, {"bufferView" : 0, "byteOffset" : 11808, "componentType" : 5123, "count" : 2652, "type" : "SCALAR", "max" : [504], "min" : [0]}, {"bufferView" : 3, "byteOffset" : 0, "componentType" : 5126, "count" : 505, "type" : "VEC3", "max" : [-3.0468268394470215, -5.761420249938965, 2.2992300987243652], "min" : [-3.7353644371032715, -12.033437728881836, -7.17050838470459], "name" : "POSITION"}, {"bufferView" : 3, "byteOffset" : 12, "componentType" : 5126, "count" : 505, "type" : "VEC3", "max" : [0.989313006401062, 0.9892537593841553, 0.9879041314125061], "min" : [-0.9945579171180725, -0.9999839067459106, -0.9882955551147461], "name" : "NORMAL"}, {"bufferView" : 3, "byteOffset" : 24, "componentType" : 5126, "count" : 505, "type" : "VEC2", "max" : [1, 2], "min" : [0, 1], "name" : "TEXCOORD_0"}, {"bufferView" : 0, "byteOffset" : 17112, "componentType" : 5123, "count" : 2652, "type" : "SCALAR", "max" : [504], "min" : [0]}, {"bufferView" : 4, "byteOffset" : 0, "componentType" : 5126, "count" : 505, "type" : "VEC3", "max" : [-3.0468268394470215, -5.761420249938965, 2.2992300987243652], "min" : [-3.7353644371032715, -12.033437728881836, -7.17050838470459], "name" : "POSITION"}, {"bufferView" : 4, "byteOffset" : 12, "componentType" : 5126, "count" : 505, "type" : "VEC3", "max" : [0.989313006401062, 0.9892537593841553, 0.9879041314125061], "min" : [-0.9945579171180725, -0.9999839067459106, -0.9882955551147461], "name" : "NORMAL"}, {"bufferView" : 4, "byteOffset" : 24, "componentType" : 5126, "count" : 505, "type" : "VEC2", "max" : [1, 2], "min" : [0, 1], "name" : "TEXCOORD_0"}, {"bufferView" : 0, "byteOffset" : 22416, "componentType" : 5123, "count" : 372, "type" : "SCALAR", "max" : [243], "min" : [0]}, {"bufferView" : 5, "byteOffset" : 0, "componentType" : 5126, "count" : 244, "type" : "VEC3", "max" : [0.9999999403953552, 1.0135987997055054, 1.191190242767334], "min" : [-0.9999999403953552, -2.59024715423584, -0.8202576637268066], "name" : "POSITION"}, {"bufferView" : 5, "byteOffset" : 12, "componentType" : 5126, "count" : 244, "type" : "VEC3", "max" : [1.0000044107437134, 1.0000044107437134, 1.0000044107437134], "min" : [-1.0000044107437134, -1.0000044107437134, -0.9998257756233215], "name" : "NORMAL"}, {"bufferView" : 5, "byteOffset" : 24, "componentType" : 5126, "count" : 244, "type" : "VEC2", "max" : [0.875, 2], "min" : [0.125, 1], "name" : "TEXCOORD_0"}, {"bufferView" : 0, "byteOffset" : 23160, "componentType" : 5123, "count" : 120, "type" : "SCALAR", "max" : [65], "min" : [0]}, {"bufferView" : 6, "byteOffset" : 0, "componentType" : 5126, "count" : 66, "type" : "VEC3", "max" : [0.33653929829597473, 1.1449999809265137, 0.326227605342865], "min" : [-0.33653929829597473, -1.1449999809265137, -0.3400000035762787], "name" : "POSITION"}, {"bufferView" : 6, "byteOffset" : 12, "componentType" : 5126, "count" : 66, "type" : "VEC3", "max" : [0.9898274540901184, 1.0000044107437134, 1.0000044107437134], "min" : [-0.9898274540901184, -1.0000044107437134, -0.9595065712928772], "name" : "NORMAL"}, {"bufferView" : 6, "byteOffset" : 24, "componentType" : 5126, "count" : 66, "type" : "VEC2", "max" : [1, 1.9802782535552979], "min" : [-1.7881393432617188E-07, 1], "name" : "TEXCOORD_0"}, {"bufferView" : 0, "byteOffset" : 23400, "componentType" : 5123, "count" : 120, "type" : "SCALAR", "max" : [65], "min" : [0]}, {"bufferView" : 7, "byteOffset" : 0, "componentType" : 5126, "count" : 66, "type" : "VEC3", "max" : [0.33653929829597473, 1.1449999809265137, 0.326227605342865], "min" : [-0.33653929829597473, -1.1449999809265137, -0.3400000035762787], "name" : "POSITION"}, {"bufferView" : 7, "byteOffset" : 12, "componentType" : 5126, "count" : 66, "type" : "VEC3", "max" : [0.9898274540901184, 1.0000044107437134, 1.0000044107437134], "min" : [-0.9898274540901184, -1.0000044107437134, -0.9595065712928772], "name" : "NORMAL"}, {"bufferView" : 7, "byteOffset" : 24, "componentType" : 5126, "count" : 66, "type" : "VEC2", "max" : [1, 1.9802782535552979], "min" : [-1.7881393432617188E-07, 1], "name" : "TEXCOORD_0"}], "asset" : {"generator" : "Aspose.3D 25.3.0", "version" : "2.0"}, "buffers" : [{"uri" : "data:application/octet-stream;base64,", "byteLength" : 125144}], "bufferViews" : [{"buffer" : 0, "byteOffset" : 0, "byteLength" : 23640, "target" : 34963}, {"buffer" : 0, "byteOffset" : 23644, "byteLength" : 30976, "byteStride" : 32, "target" : 34962}, {"buffer" : 0, "byteOffset" : 54624, "byteLength" : 26144, "byteStride" : 32, "target" : 34962}, {"buffer" : 0, "byteOffset" : 80772, "byteLength" : 16160, "byteStride" : 32, "target" : 34962}, {"buffer" : 0, "byteOffset" : 96936, "byteLength" : 16160, "byteStride" : 32, "target" : 34962}, {"buffer" : 0, "byteOffset" : 113100, "byteLength" : 7808, "byteStride" : 32, "target" : 34962}, {"buffer" : 0, "byteOffset" : 120912, "byteLength" : 2112, "byteStride" : 32, "target" : 34962}, {"buffer" : 0, "byteOffset" : 123028, "byteLength" : 2112, "byteStride" : 32, "target" : 34962}], "materials" : [{"name" : "Material.001", "pbrMetallicRoughness" : {"baseColorFactor" : [1, 0.775823175907135, 0.3662528991699219, 1], "metallicFactor" : 0, "roughnessFactor" : 0.5}, "emissiveFactor" : [0, 0, 0], "alphaMode" : "OPAQUE", "doubleSided" : true}, {"name" : "Material.003", "pbrMetallicRoughness" : {"baseColorFactor" : [0.046664174646139145, 0.21223072707653046, 0.7991031408309937, 1], "metallicFactor" : 0, "roughnessFactor" : 0.5}, "emissiveFactor" : [0, 0, 0], "alphaMode" : "OPAQUE", "doubleSided" : true}, {"name" : "Material.004", "pbrMetallicRoughness" : {"baseColorFactor" : [0.046664174646139145, 0.21223072707653046, 0.7991031408309937, 1], "metallicFactor" : 0, "roughnessFactor" : 0.5}, "emissiveFactor" : [0, 0, 0], "alphaMode" : "OPAQUE", "doubleSided" : true}, {"name" : "Material.005", "pbrMetallicRoughness" : {"baseColorFactor" : [0.046664174646139145, 0.21223072707653046, 0.7991031408309937, 1], "metallicFactor" : 0, "roughnessFactor" : 0.5}, "emissiveFactor" : [0, 0, 0], "alphaMode" : "OPAQUE", "doubleSided" : true}, {"name" : "Material.002", "pbrMetallicRoughness" : {"baseColorFactor" : [1, 0.775823175907135, 0.3662528991699219, 1], "metallicFactor" : 0, "roughnessFactor" : 0.5}, "emissiveFactor" : [0, 0, 0], "alphaMode" : "OPAQUE", "doubleSided" : true}, {"name" : "Material.006", "pbrMetallicRoughness" : {"baseColorFactor" : [0.046664174646139145, 0.21223072707653046, 0.7991031408309937, 1], "metallicFactor" : 0, "roughnessFactor" : 0.5}, "emissiveFactor" : [0, 0, 0], "alphaMode" : "OPAQUE", "doubleSided" : true}, {"name" : "Material.007", "pbrMetallicRoughness" : {"baseColorFactor" : [0.046664174646139145, 0.21223072707653046, 0.7991031408309937, 1], "metallicFactor" : 0, "roughnessFactor" : 0.5}, "emissiveFactor" : [0, 0, 0], "alphaMode" : "OPAQUE", "doubleSided" : true}], "meshes" : [{"primitives" : [{"attributes" : {"POSITION" : 1, "NORMAL" : 2, "TEXCOORD_0" : 3}, "indices" : 0, "material" : 0, "mode" : 4}]}, {"primitives" : [{"attributes" : {"POSITION" : 5, "NORMAL" : 6, "TEXCOORD_0" : 7}, "indices" : 4, "material" : 1, "mode" : 4}]}, {"primitives" : [{"attributes" : {"POSITION" : 9, "NORMAL" : 10, "TEXCOORD_0" : 11}, "indices" : 8, "material" : 2, "mode" : 4}]}, {"primitives" : [{"attributes" : {"POSITION" : 13, "NORMAL" : 14, "TEXCOORD_0" : 15}, "indices" : 12, "material" : 3, "mode" : 4}]}, {"primitives" : [{"attributes" : {"POSITION" : 17, "NORMAL" : 18, "TEXCOORD_0" : 19}, "indices" : 16, "material" : 4, "mode" : 4}]}, {"primitives" : [{"attributes" : {"POSITION" : 21, "NORMAL" : 22, "TEXCOORD_0" : 23}, "indices" : 20, "material" : 5, "mode" : 4}]}, {"primitives" : [{"attributes" : {"POSITION" : 25, "NORMAL" : 26, "TEXCOORD_0" : 27}, "indices" : 24, "material" : 6, "mode" : 4}]}], "nodes" : [{"matrix" : [4.243495464324951, 0, 0, 0, 0, 2.4379367663200333, 0.017487757414698914, 0, 0, -0.001654035605054857, 0.2305861248381838, 0, -0.17326326668262482, 0.24443182349205017, 0.11187322437763214, 1], "mesh" : 0, "name" : "Cube"}, {"matrix" : [-0.00036920623643510453, 0.9999999316931181, 0, 0, -0.9999999316931181, -0.00036920623643510453, 0, 0, 0, 0, 1, 0, 3.335322618484497, 1.5560349225997925, -0.007727868854999542, 1], "mesh" : 1, "name" : "BzierCurve"}, {"matrix" : [1, 0, 0, 0, 0, 1, 0, 0, 0, 0, 1, 0, 7.407411575317383, 0, -0.7271958589553833, 1], "mesh" : 2, "name" : "BzierCurve.001"}, {"matrix" : [1, 0, 0, 0, 0, 1, 0, 0, 0, 0, 1, 0, -0.7286109924316406, 0, -0.7271958589553833, 1], "mesh" : 3, "name" : "BzierCurve.002"}, {"matrix" : [3.378716230392456, 0, 0, 0, 0, 0.15742796659469604, 0, 0, 0, 0, 3.6035850048065186, 0, -0.05168614163994789, -5.601677417755127, -5.178265571594238, 1], "mesh" : 4, "name" : "Cube.002"}, {"matrix" : [0, 0, -0.901726484298706, 0, -3.523719072341919, 0, 0, 0, 0, 0.901726484298706, 0, 0, 0.01181621104478836, -7.49447774887085, -6.606269359588623, 1], "mesh" : 5, "name" : "Cylinder"}, {"matrix" : [0, 0, -0.901726484298706, 0, -3.523719072341919, 0, 0, 0, 0, 0.901726484298706, 0, 0, 0.01181621104478836, -7.49447774887085, 0.1800098419189453, 1], "mesh" : 6, "name" : "Cylinder.001"}], "scene" : 0, "scenes" : [{"nodes" : [0, 1, 2, 3, 4, 5, 6]}]}